<svg width="164" height="50" viewBox="0 0 164 50" fill="none" xmlns="http://www.w3.org/2000/svg">
<path d="M40 0H10C4.47715 0 0 4.47715 0 10V40C0 45.5228 4.47715 50 10 50H40C45.5228 50 50 45.5228 50 40V10C50 4.47715 45.5228 0 40 0Z" fill="#2CB1BC"/>
<path d="M26.0039 9.5625H31.8633V29.25C31.8633 31.0599 31.4596 32.6615 30.6523 34.0547C29.8581 35.4349 28.7318 36.5026 27.2734 37.2578C25.8151 38.013 24.168 38.3906 22.332 38.3906C19.3242 38.3906 16.9805 37.6289 15.3008 36.1055C13.6211 34.569 12.7812 32.401 12.7812 29.6016H18.6797C18.6797 30.9948 18.9727 32.0234 19.5586 32.6875C20.1445 33.3516 21.069 33.6836 22.332 33.6836C23.4518 33.6836 24.3438 33.2995 25.0078 32.5312C25.6719 31.763 26.0039 30.6693 26.0039 29.25V9.5625Z" fill="white"/>
<path d="M72.393 28.709C72.393 29.627 72.285 30.491 72.069 31.301C71.871 32.111 71.511 32.822 70.989 33.434C70.485 34.028 69.792 34.505 68.91 34.865C68.046 35.207 66.948 35.378 65.616 35.378C64.392 35.378 63.339 35.234 62.457 34.946C61.575 34.64 60.846 34.289 60.27 33.893L61.674 30.626C62.196 30.932 62.754 31.202 63.348 31.436C63.942 31.67 64.59 31.787 65.292 31.787C66.318 31.787 67.056 31.535 67.506 31.031C67.956 30.527 68.181 29.681 68.181 28.493V16.289H72.393V28.709ZM90.545 27.872C90.545 28.988 90.383 30.014 90.059 30.95C89.735 31.868 89.267 32.66 88.655 33.326C88.043 33.974 87.305 34.478 86.441 34.838C85.595 35.198 84.641 35.378 83.579 35.378C82.535 35.378 81.581 35.198 80.717 34.838C79.871 34.478 79.142 33.974 78.53 33.326C77.918 32.66 77.441 31.868 77.099 30.95C76.757 30.014 76.586 28.988 76.586 27.872C76.586 26.756 76.757 25.739 77.099 24.821C77.459 23.903 77.945 23.12 78.557 22.472C79.187 21.824 79.925 21.32 80.771 20.96C81.635 20.6 82.571 20.42 83.579 20.42C84.605 20.42 85.541 20.6 86.387 20.96C87.251 21.32 87.989 21.824 88.601 22.472C89.213 23.12 89.69 23.903 90.032 24.821C90.374 25.739 90.545 26.756 90.545 27.872ZM86.441 27.872C86.441 26.63 86.189 25.658 85.685 24.956C85.199 24.236 84.497 23.876 83.579 23.876C82.661 23.876 81.95 24.236 81.446 24.956C80.942 25.658 80.69 26.63 80.69 27.872C80.69 29.114 80.942 30.104 81.446 30.842C81.95 31.562 82.661 31.922 83.579 31.922C84.497 31.922 85.199 31.562 85.685 30.842C86.189 30.104 86.441 29.114 86.441 27.872ZM103.84 27.791C103.84 25.199 102.886 23.903 100.978 23.903C100.564 23.903 100.15 23.957 99.7364 24.065C99.3404 24.173 99.0164 24.308 98.7644 24.47V31.787C98.9624 31.823 99.2144 31.859 99.5204 31.895C99.8264 31.913 100.159 31.922 100.519 31.922C101.617 31.922 102.445 31.544 103.003 30.788C103.561 30.032 103.84 29.033 103.84 27.791ZM107.944 27.899C107.944 29.033 107.773 30.059 107.431 30.977C107.107 31.895 106.63 32.678 106 33.326C105.37 33.974 104.596 34.478 103.678 34.838C102.76 35.18 101.716 35.351 100.546 35.351C100.06 35.351 99.5474 35.324 99.0074 35.27C98.4854 35.234 97.9634 35.18 97.4414 35.108C96.9374 35.036 96.4514 34.955 95.9834 34.865C95.5154 34.757 95.1014 34.649 94.7414 34.541V14.696L98.7644 14.048V21.122C99.2144 20.924 99.6824 20.771 100.168 20.663C100.654 20.555 101.176 20.501 101.734 20.501C102.742 20.501 103.633 20.681 104.407 21.041C105.181 21.383 105.829 21.878 106.351 22.526C106.873 23.174 107.269 23.957 107.539 24.875C107.809 25.775 107.944 26.783 107.944 27.899ZM121.215 27.791C121.215 25.199 120.261 23.903 118.353 23.903C117.939 23.903 117.525 23.957 117.111 24.065C116.715 24.173 116.391 24.308 116.139 24.47V31.787C116.337 31.823 116.589 31.859 116.895 31.895C117.201 31.913 117.534 31.922 117.894 31.922C118.992 31.922 119.82 31.544 120.378 30.788C120.936 30.032 121.215 29.033 121.215 27.791ZM125.319 27.899C125.319 29.033 125.148 30.059 124.806 30.977C124.482 31.895 124.005 32.678 123.375 33.326C122.745 33.974 121.971 34.478 121.053 34.838C120.135 35.18 119.091 35.351 117.921 35.351C117.435 35.351 116.922 35.324 116.382 35.27C115.86 35.234 115.338 35.18 114.816 35.108C114.312 35.036 113.826 34.955 113.358 34.865C112.89 34.757 112.476 34.649 112.116 34.541V14.696L116.139 14.048V21.122C116.589 20.924 117.057 20.771 117.543 20.663C118.029 20.555 118.551 20.501 119.109 20.501C120.117 20.501 121.008 20.681 121.782 21.041C122.556 21.383 123.204 21.878 123.726 22.526C124.248 23.174 124.644 23.957 124.914 24.875C125.184 25.775 125.319 26.783 125.319 27.899ZM128.816 28.007C128.816 26.747 129.005 25.649 129.383 24.713C129.779 23.759 130.292 22.967 130.922 22.337C131.552 21.707 132.272 21.23 133.082 20.906C133.91 20.582 134.756 20.42 135.62 20.42C137.636 20.42 139.229 21.041 140.399 22.283C141.569 23.507 142.154 25.316 142.154 27.71C142.154 27.944 142.145 28.205 142.127 28.493C142.109 28.763 142.091 29.006 142.073 29.222H132.947C133.037 30.05 133.424 30.707 134.108 31.193C134.792 31.679 135.71 31.922 136.862 31.922C137.6 31.922 138.32 31.859 139.022 31.733C139.742 31.589 140.327 31.418 140.777 31.22L141.317 34.487C141.101 34.595 140.813 34.703 140.453 34.811C140.093 34.919 139.688 35.009 139.238 35.081C138.806 35.171 138.338 35.243 137.834 35.297C137.33 35.351 136.826 35.378 136.322 35.378C135.044 35.378 133.928 35.189 132.974 34.811C132.038 34.433 131.255 33.92 130.625 33.272C130.013 32.606 129.554 31.823 129.248 30.923C128.96 30.023 128.816 29.051 128.816 28.007ZM138.266 26.468C138.248 26.126 138.185 25.793 138.077 25.469C137.987 25.145 137.834 24.857 137.618 24.605C137.42 24.353 137.159 24.146 136.835 23.984C136.529 23.822 136.142 23.741 135.674 23.741C135.224 23.741 134.837 23.822 134.513 23.984C134.189 24.128 133.919 24.326 133.703 24.578C133.487 24.83 133.316 25.127 133.19 25.469C133.082 25.793 133.001 26.126 132.947 26.468H138.266ZM154.898 24.362C154.538 24.272 154.115 24.182 153.629 24.092C153.143 23.984 152.621 23.93 152.063 23.93C151.811 23.93 151.505 23.957 151.145 24.011C150.803 24.047 150.542 24.092 150.362 24.146V35H146.339V21.554C147.059 21.302 147.905 21.068 148.877 20.852C149.867 20.618 150.965 20.501 152.171 20.501C152.387 20.501 152.648 20.519 152.954 20.555C153.26 20.573 153.566 20.609 153.872 20.663C154.178 20.699 154.484 20.753 154.79 20.825C155.096 20.879 155.357 20.951 155.573 21.041L154.898 24.362Z" fill="#2CB1BC"/>
</svg>




